<?xml version="1.0" standalone="no"?>
<!DOCTYPE svg PUBLIC "-//W3C//DTD SVG 20010904//EN"
 "http://www.w3.org/TR/2001/REC-SVG-20010904/DTD/svg10.dtd">
<svg version="1.0" xmlns="http://www.w3.org/2000/svg"
 width="260.000000pt" height="260.000000pt" viewBox="0 0 260.000000 260.000000"
 preserveAspectRatio="xMidYMid meet">
<metadata>
Created by potrace 1.14, written by Peter Selinger 2001-2017
</metadata>
<g transform="translate(0.000000,260.000000) scale(0.100000,-0.100000)"
fill="#000000" stroke="none">
<path d="M2269 2436 c-44 -12 -77 -35 -244 -169 -103 -83 -117 -94 -213 -167
-139 -105 -283 -169 -463 -205 -18 -4 -263 -8 -542 -10 -498 -3 -574 -7 -612
-37 -59 -45 -89 -78 -112 -126 l-28 -57 -2 -260 c-3 -237 -1 -266 17 -314 50
-137 143 -194 314 -192 l93 1 -1 -122 c-1 -129 6 -210 24 -263 6 -18 12 -41
14 -51 8 -38 46 -142 68 -185 39 -74 60 -79 292 -78 222 1 239 5 275 62 33 53
28 111 -15 183 -89 147 -116 271 -90 413 l8 44 127 -7 c167 -8 210 -14 312
-46 86 -26 189 -77 273 -134 61 -42 330 -253 380 -298 112 -101 223 -101 272
0 16 33 18 71 19 386 0 288 3 350 14 354 26 9 84 77 104 122 28 63 27 160 -2
225 -12 27 -43 69 -69 93 l-47 44 0 341 c0 326 -1 344 -21 382 -13 25 -36 48
-60 61 -35 20 -44 21 -85 10z m-119 -1047 l0 -611 -42 33 c-24 19 -45 36 -48
39 -10 12 -160 120 -167 120 -3 0 -14 6 -22 14 -27 24 -192 103 -271 129 -112
37 -257 64 -376 68 l-51 2 1 209 0 208 31 0 c109 2 205 16 335 48 66 17 224
84 299 129 68 40 235 160 285 206 11 9 21 17 23 17 2 0 3 -275 3 -611z"/>
</g>
</svg>
