<?xml version="1.0" standalone="no"?>
<!DOCTYPE svg PUBLIC "-//W3C//DTD SVG 20010904//EN"
 "http://www.w3.org/TR/2001/REC-SVG-20010904/DTD/svg10.dtd">
<svg version="1.0" xmlns="http://www.w3.org/2000/svg"
 width="351.000000pt" height="351.000000pt" viewBox="0 0 351.000000 351.000000"
 preserveAspectRatio="xMidYMid meet">
<metadata>
</metadata>
<g transform="translate(0.000000,351.000000) scale(0.100000,-0.100000)"
fill="#000000" stroke="none">
<path d="M2454 3302 c-24 -16 -62 -71 -69 -102 -1 -3 -11 -27 -23 -53 -12 -27
-22 -50 -22 -53 0 -2 -11 -27 -24 -56 -13 -29 -48 -109 -76 -178 -29 -69 -64
-149 -78 -179 -97 -215 -94 -238 58 -361 30 -25 66 -55 80 -67 25 -22 48 -41
109 -90 19 -16 42 -36 52 -45 11 -10 19 -15 19 -11 0 4 7 -2 15 -14 16 -23 11
-73 -7 -73 -5 0 -6 -4 -3 -10 3 -5 1 -10 -5 -10 -6 0 -9 -4 -5 -9 3 -5 1 -12
-5 -16 -6 -3 -16 -21 -24 -39 -22 -53 -153 -251 -192 -290 -6 -6 -15 -18 -20
-28 -13 -23 -141 -163 -209 -228 -32 -30 -70 -67 -85 -82 -15 -16 -31 -28 -36
-28 -5 0 -27 -16 -49 -36 -22 -19 -62 -49 -90 -67 -27 -17 -52 -34 -55 -37 -3
-4 -24 -17 -47 -30 -24 -13 -43 -27 -43 -32 0 -4 -3 -7 -7 -6 -5 1 -48 -18
-96 -43 l-88 -44 -22 30 c-12 17 -32 40 -44 53 -12 12 -20 22 -17 22 3 0 -5
11 -18 24 -28 28 -50 55 -96 115 -19 25 -37 48 -41 51 -3 3 -23 26 -43 51 -44
55 -97 83 -143 76 -27 -4 -123 -42 -265 -105 -19 -9 -37 -16 -40 -17 -3 -1
-21 -8 -40 -17 -19 -8 -64 -28 -100 -43 -36 -15 -83 -35 -105 -45 -22 -9 -69
-30 -105 -45 -36 -15 -72 -31 -80 -36 -8 -5 -22 -12 -30 -16 -52 -24 -67 -85
-44 -183 3 -14 7 -34 9 -45 2 -11 17 -78 35 -150 17 -71 33 -138 35 -148 2
-10 7 -27 10 -37 3 -10 7 -32 10 -49 2 -17 6 -39 10 -50 3 -11 8 -29 10 -40 3
-12 7 -30 10 -42 31 -142 59 -159 249 -153 72 2 147 6 166 9 19 2 64 7 100 10
36 3 76 8 90 10 14 3 36 8 50 10 14 3 41 8 60 11 51 8 67 11 155 34 44 11 88
23 98 25 43 12 55 16 107 33 93 32 262 104 328 139 34 18 62 30 62 25 0 -4 4
-2 8 4 4 6 35 26 70 45 34 18 62 37 62 41 0 5 6 8 13 8 11 0 114 64 127 79 3
3 28 21 55 40 218 151 489 420 668 663 31 43 57 82 57 87 0 5 4 11 9 13 13 5
180 289 186 318 1 3 13 30 28 60 64 135 97 228 147 410 36 132 40 145 46 183
2 15 7 42 10 60 3 17 5 40 5 50 0 9 3 17 7 17 4 0 8 15 8 33 1 69 4 88 12 83
5 -3 9 1 9 9 0 8 -4 12 -9 9 -4 -3 -8 0 -8 5 0 6 4 11 9 11 12 0 14 312 1 360
-12 44 -59 83 -115 94 -16 4 -39 8 -50 10 -11 2 -87 20 -170 39 -142 34 -167
39 -232 52 -16 3 -44 10 -63 15 -125 32 -188 35 -226 12z"/>
</g>
</svg>
